<mxfile host="app.diagrams.net" modified="2022-11-24T15:35:09.925Z" agent="5.0 (X11; Linux x86_64) AppleWebKit/537.36 (KHTML, like Gecko) Chrome/107.0.0.0 Safari/537.36" version="20.6.0" etag="hAHm34kF4ZEz_9-uyM5Q" type="github">
  <diagram id="t5-h7MMGXvX7lH2J9NL8" name="Page-1">
    <mxGraphModel dx="1926" dy="1104" grid="1" gridSize="10" guides="1" tooltips="1" connect="1" arrows="1" fold="1" page="1" pageScale="1" pageWidth="850" pageHeight="1100" math="0" shadow="0">
      <root>
        <mxCell id="0" />
        <mxCell id="1" parent="0" />
        <mxCell id="FpZ4pMG53id_TzNfhulm-1" value="appuser" style="swimlane;whiteSpace=wrap;html=1;fillColor=#fff2cc;strokeColor=#d6b656;" vertex="1" parent="1">
          <mxGeometry x="590" y="510" width="130" height="115" as="geometry" />
        </mxCell>
        <mxCell id="FpZ4pMG53id_TzNfhulm-2" value="Id_appuser" style="text;html=1;strokeColor=none;fillColor=none;align=left;verticalAlign=middle;whiteSpace=wrap;rounded=0;" vertex="1" parent="FpZ4pMG53id_TzNfhulm-1">
          <mxGeometry x="10" y="20" width="60" height="30" as="geometry" />
        </mxCell>
        <mxCell id="FpZ4pMG53id_TzNfhulm-6" value="login" style="text;html=1;strokeColor=none;fillColor=none;align=left;verticalAlign=middle;whiteSpace=wrap;rounded=0;" vertex="1" parent="FpZ4pMG53id_TzNfhulm-1">
          <mxGeometry x="10" y="40" width="60" height="30" as="geometry" />
        </mxCell>
        <mxCell id="FpZ4pMG53id_TzNfhulm-7" value="password" style="text;html=1;strokeColor=none;fillColor=none;align=left;verticalAlign=middle;whiteSpace=wrap;rounded=0;" vertex="1" parent="FpZ4pMG53id_TzNfhulm-1">
          <mxGeometry x="10" y="60" width="60" height="30" as="geometry" />
        </mxCell>
        <mxCell id="FpZ4pMG53id_TzNfhulm-9" value="is_deleted" style="text;html=1;strokeColor=none;fillColor=none;align=left;verticalAlign=middle;whiteSpace=wrap;rounded=0;" vertex="1" parent="FpZ4pMG53id_TzNfhulm-1">
          <mxGeometry x="10" y="80" width="60" height="30" as="geometry" />
        </mxCell>
        <mxCell id="FpZ4pMG53id_TzNfhulm-49" style="edgeStyle=orthogonalEdgeStyle;rounded=0;orthogonalLoop=1;jettySize=auto;html=1;exitX=0;exitY=0.5;exitDx=0;exitDy=0;entryX=1;entryY=0.5;entryDx=0;entryDy=0;endArrow=none;endFill=0;" edge="1" parent="1" source="FpZ4pMG53id_TzNfhulm-8" target="FpZ4pMG53id_TzNfhulm-48">
          <mxGeometry relative="1" as="geometry">
            <Array as="points">
              <mxPoint x="560" y="290" />
              <mxPoint x="560" y="290" />
            </Array>
          </mxGeometry>
        </mxCell>
        <mxCell id="FpZ4pMG53id_TzNfhulm-51" value="0,n" style="edgeLabel;html=1;align=center;verticalAlign=middle;resizable=0;points=[];" vertex="1" connectable="0" parent="FpZ4pMG53id_TzNfhulm-49">
          <mxGeometry x="0.1933" relative="1" as="geometry">
            <mxPoint as="offset" />
          </mxGeometry>
        </mxCell>
        <mxCell id="FpZ4pMG53id_TzNfhulm-8" value="account" style="swimlane;whiteSpace=wrap;html=1;fillColor=#fff2cc;strokeColor=#d6b656;" vertex="1" parent="1">
          <mxGeometry x="590" y="240" width="130" height="100" as="geometry" />
        </mxCell>
        <mxCell id="FpZ4pMG53id_TzNfhulm-10" value="Id_account" style="text;html=1;strokeColor=none;fillColor=none;align=left;verticalAlign=middle;whiteSpace=wrap;rounded=0;" vertex="1" parent="FpZ4pMG53id_TzNfhulm-8">
          <mxGeometry x="10" y="20" width="60" height="30" as="geometry" />
        </mxCell>
        <mxCell id="FpZ4pMG53id_TzNfhulm-11" value="username" style="text;html=1;strokeColor=none;fillColor=none;align=left;verticalAlign=middle;whiteSpace=wrap;rounded=0;" vertex="1" parent="FpZ4pMG53id_TzNfhulm-8">
          <mxGeometry x="10" y="40" width="60" height="30" as="geometry" />
        </mxCell>
        <mxCell id="FpZ4pMG53id_TzNfhulm-13" value="is_deleted" style="text;html=1;strokeColor=none;fillColor=none;align=left;verticalAlign=middle;whiteSpace=wrap;rounded=0;" vertex="1" parent="FpZ4pMG53id_TzNfhulm-8">
          <mxGeometry x="10" y="60" width="60" height="30" as="geometry" />
        </mxCell>
        <mxCell id="FpZ4pMG53id_TzNfhulm-63" style="edgeStyle=orthogonalEdgeStyle;rounded=0;orthogonalLoop=1;jettySize=auto;html=1;exitX=0.5;exitY=1;exitDx=0;exitDy=0;entryX=0.5;entryY=0;entryDx=0;entryDy=0;endArrow=none;endFill=0;" edge="1" parent="1" source="FpZ4pMG53id_TzNfhulm-14" target="FpZ4pMG53id_TzNfhulm-62">
          <mxGeometry relative="1" as="geometry">
            <Array as="points">
              <mxPoint x="315" y="350" />
              <mxPoint x="315" y="350" />
            </Array>
          </mxGeometry>
        </mxCell>
        <mxCell id="FpZ4pMG53id_TzNfhulm-71" value="0,1" style="edgeLabel;html=1;align=center;verticalAlign=middle;resizable=0;points=[];" vertex="1" connectable="0" parent="FpZ4pMG53id_TzNfhulm-63">
          <mxGeometry x="0.2333" relative="1" as="geometry">
            <mxPoint as="offset" />
          </mxGeometry>
        </mxCell>
        <mxCell id="FpZ4pMG53id_TzNfhulm-14" value="stable" style="swimlane;whiteSpace=wrap;html=1;fillColor=#fff2cc;strokeColor=#d6b656;" vertex="1" parent="1">
          <mxGeometry x="260" y="255" width="110" height="75" as="geometry" />
        </mxCell>
        <mxCell id="FpZ4pMG53id_TzNfhulm-15" value="Id_stable" style="text;html=1;strokeColor=none;fillColor=none;align=left;verticalAlign=middle;whiteSpace=wrap;rounded=0;" vertex="1" parent="FpZ4pMG53id_TzNfhulm-14">
          <mxGeometry x="10" y="20" width="60" height="30" as="geometry" />
        </mxCell>
        <mxCell id="FpZ4pMG53id_TzNfhulm-19" value="name" style="text;html=1;strokeColor=none;fillColor=none;align=left;verticalAlign=middle;whiteSpace=wrap;rounded=0;" vertex="1" parent="FpZ4pMG53id_TzNfhulm-14">
          <mxGeometry x="10" y="40" width="60" height="30" as="geometry" />
        </mxCell>
        <mxCell id="FpZ4pMG53id_TzNfhulm-16" value="type" style="swimlane;whiteSpace=wrap;html=1;fillColor=#fff2cc;strokeColor=#d6b656;" vertex="1" parent="1">
          <mxGeometry x="260" y="30" width="110" height="80" as="geometry" />
        </mxCell>
        <mxCell id="FpZ4pMG53id_TzNfhulm-17" value="Id_type" style="text;html=1;strokeColor=none;fillColor=none;align=left;verticalAlign=middle;whiteSpace=wrap;rounded=0;" vertex="1" parent="FpZ4pMG53id_TzNfhulm-16">
          <mxGeometry x="10" y="20" width="60" height="30" as="geometry" />
        </mxCell>
        <mxCell id="FpZ4pMG53id_TzNfhulm-20" value="title" style="text;html=1;strokeColor=none;fillColor=none;align=left;verticalAlign=middle;whiteSpace=wrap;rounded=0;" vertex="1" parent="FpZ4pMG53id_TzNfhulm-16">
          <mxGeometry x="10" y="40" width="60" height="30" as="geometry" />
        </mxCell>
        <mxCell id="FpZ4pMG53id_TzNfhulm-21" value="address" style="swimlane;whiteSpace=wrap;html=1;fillColor=#fff2cc;strokeColor=#d6b656;" vertex="1" parent="1">
          <mxGeometry x="155" y="480" width="110" height="130" as="geometry" />
        </mxCell>
        <mxCell id="FpZ4pMG53id_TzNfhulm-22" value="Id_address" style="text;html=1;strokeColor=none;fillColor=none;align=left;verticalAlign=middle;whiteSpace=wrap;rounded=0;" vertex="1" parent="FpZ4pMG53id_TzNfhulm-21">
          <mxGeometry x="10" y="20" width="60" height="30" as="geometry" />
        </mxCell>
        <mxCell id="FpZ4pMG53id_TzNfhulm-23" value="number" style="text;html=1;strokeColor=none;fillColor=none;align=left;verticalAlign=middle;whiteSpace=wrap;rounded=0;" vertex="1" parent="FpZ4pMG53id_TzNfhulm-21">
          <mxGeometry x="10" y="40" width="60" height="30" as="geometry" />
        </mxCell>
        <mxCell id="FpZ4pMG53id_TzNfhulm-24" value="type" style="text;html=1;strokeColor=none;fillColor=none;align=left;verticalAlign=middle;whiteSpace=wrap;rounded=0;" vertex="1" parent="FpZ4pMG53id_TzNfhulm-21">
          <mxGeometry x="10" y="60" width="60" height="30" as="geometry" />
        </mxCell>
        <mxCell id="FpZ4pMG53id_TzNfhulm-25" value="code postal" style="text;html=1;strokeColor=none;fillColor=none;align=left;verticalAlign=middle;whiteSpace=wrap;rounded=0;" vertex="1" parent="FpZ4pMG53id_TzNfhulm-21">
          <mxGeometry x="10" y="80" width="70" height="30" as="geometry" />
        </mxCell>
        <mxCell id="FpZ4pMG53id_TzNfhulm-26" value="city" style="text;html=1;strokeColor=none;fillColor=none;align=left;verticalAlign=middle;whiteSpace=wrap;rounded=0;" vertex="1" parent="FpZ4pMG53id_TzNfhulm-21">
          <mxGeometry x="10" y="100" width="70" height="30" as="geometry" />
        </mxCell>
        <mxCell id="FpZ4pMG53id_TzNfhulm-41" style="edgeStyle=orthogonalEdgeStyle;rounded=0;orthogonalLoop=1;jettySize=auto;html=1;exitX=0.5;exitY=1;exitDx=0;exitDy=0;entryX=0.5;entryY=0;entryDx=0;entryDy=0;endArrow=none;endFill=0;" edge="1" parent="1" source="FpZ4pMG53id_TzNfhulm-36" target="FpZ4pMG53id_TzNfhulm-1">
          <mxGeometry relative="1" as="geometry" />
        </mxCell>
        <mxCell id="FpZ4pMG53id_TzNfhulm-45" value="0,1" style="edgeLabel;html=1;align=center;verticalAlign=middle;resizable=0;points=[];" vertex="1" connectable="0" parent="FpZ4pMG53id_TzNfhulm-41">
          <mxGeometry x="-0.2384" y="2" relative="1" as="geometry">
            <mxPoint x="-2" y="3" as="offset" />
          </mxGeometry>
        </mxCell>
        <mxCell id="FpZ4pMG53id_TzNfhulm-44" style="edgeStyle=orthogonalEdgeStyle;rounded=0;orthogonalLoop=1;jettySize=auto;html=1;exitX=0.5;exitY=0;exitDx=0;exitDy=0;entryX=0.5;entryY=1;entryDx=0;entryDy=0;endArrow=none;endFill=0;" edge="1" parent="1" source="FpZ4pMG53id_TzNfhulm-36" target="FpZ4pMG53id_TzNfhulm-8">
          <mxGeometry relative="1" as="geometry" />
        </mxCell>
        <mxCell id="FpZ4pMG53id_TzNfhulm-46" value="0,1" style="edgeLabel;html=1;align=center;verticalAlign=middle;resizable=0;points=[];" vertex="1" connectable="0" parent="FpZ4pMG53id_TzNfhulm-44">
          <mxGeometry x="0.2494" y="-3" relative="1" as="geometry">
            <mxPoint x="-3" y="7" as="offset" />
          </mxGeometry>
        </mxCell>
        <mxCell id="FpZ4pMG53id_TzNfhulm-36" value="connect" style="swimlane;whiteSpace=wrap;html=1;fillColor=#dae8fc;strokeColor=#6c8ebf;rounded=1;" vertex="1" parent="1">
          <mxGeometry x="605" y="400" width="100" height="40" as="geometry" />
        </mxCell>
        <mxCell id="FpZ4pMG53id_TzNfhulm-50" style="edgeStyle=orthogonalEdgeStyle;rounded=0;orthogonalLoop=1;jettySize=auto;html=1;exitX=0;exitY=0.5;exitDx=0;exitDy=0;entryX=1;entryY=0.5;entryDx=0;entryDy=0;endArrow=none;endFill=0;" edge="1" parent="1" source="FpZ4pMG53id_TzNfhulm-48" target="FpZ4pMG53id_TzNfhulm-14">
          <mxGeometry relative="1" as="geometry" />
        </mxCell>
        <mxCell id="FpZ4pMG53id_TzNfhulm-52" value="0,1" style="edgeLabel;html=1;align=center;verticalAlign=middle;resizable=0;points=[];" vertex="1" connectable="0" parent="FpZ4pMG53id_TzNfhulm-50">
          <mxGeometry x="0.1619" y="-1" relative="1" as="geometry">
            <mxPoint x="5" y="1" as="offset" />
          </mxGeometry>
        </mxCell>
        <mxCell id="FpZ4pMG53id_TzNfhulm-48" value="own" style="swimlane;whiteSpace=wrap;html=1;fillColor=#dae8fc;strokeColor=#6c8ebf;rounded=1;" vertex="1" parent="1">
          <mxGeometry x="430" y="270" width="100" height="40" as="geometry" />
        </mxCell>
        <mxCell id="FpZ4pMG53id_TzNfhulm-54" style="edgeStyle=orthogonalEdgeStyle;rounded=0;orthogonalLoop=1;jettySize=auto;html=1;exitX=0.5;exitY=1;exitDx=0;exitDy=0;entryX=0.5;entryY=0;entryDx=0;entryDy=0;endArrow=none;endFill=0;" edge="1" parent="1" source="FpZ4pMG53id_TzNfhulm-53" target="FpZ4pMG53id_TzNfhulm-14">
          <mxGeometry relative="1" as="geometry" />
        </mxCell>
        <mxCell id="FpZ4pMG53id_TzNfhulm-59" value="0,1" style="edgeLabel;html=1;align=center;verticalAlign=middle;resizable=0;points=[];" vertex="1" connectable="0" parent="FpZ4pMG53id_TzNfhulm-54">
          <mxGeometry x="-0.2104" relative="1" as="geometry">
            <mxPoint as="offset" />
          </mxGeometry>
        </mxCell>
        <mxCell id="FpZ4pMG53id_TzNfhulm-57" style="edgeStyle=orthogonalEdgeStyle;rounded=0;orthogonalLoop=1;jettySize=auto;html=1;exitX=0.5;exitY=0;exitDx=0;exitDy=0;entryX=0.5;entryY=1;entryDx=0;entryDy=0;endArrow=none;endFill=0;" edge="1" parent="1" source="FpZ4pMG53id_TzNfhulm-53" target="FpZ4pMG53id_TzNfhulm-16">
          <mxGeometry relative="1" as="geometry" />
        </mxCell>
        <mxCell id="FpZ4pMG53id_TzNfhulm-58" value="0,n" style="edgeLabel;html=1;align=center;verticalAlign=middle;resizable=0;points=[];" vertex="1" connectable="0" parent="FpZ4pMG53id_TzNfhulm-57">
          <mxGeometry x="0.2343" relative="1" as="geometry">
            <mxPoint as="offset" />
          </mxGeometry>
        </mxCell>
        <mxCell id="FpZ4pMG53id_TzNfhulm-53" value="have" style="swimlane;whiteSpace=wrap;html=1;fillColor=#dae8fc;strokeColor=#6c8ebf;rounded=1;" vertex="1" parent="1">
          <mxGeometry x="265" y="160" width="100" height="40" as="geometry" />
        </mxCell>
        <mxCell id="FpZ4pMG53id_TzNfhulm-65" style="edgeStyle=orthogonalEdgeStyle;rounded=0;orthogonalLoop=1;jettySize=auto;html=1;exitX=0;exitY=0.5;exitDx=0;exitDy=0;entryX=1;entryY=0.5;entryDx=0;entryDy=0;endArrow=none;endFill=0;" edge="1" parent="1" source="FpZ4pMG53id_TzNfhulm-61" target="FpZ4pMG53id_TzNfhulm-21">
          <mxGeometry relative="1" as="geometry">
            <Array as="points">
              <mxPoint x="320" y="545" />
              <mxPoint x="320" y="545" />
            </Array>
          </mxGeometry>
        </mxCell>
        <mxCell id="FpZ4pMG53id_TzNfhulm-68" value="0,1" style="edgeLabel;html=1;align=center;verticalAlign=middle;resizable=0;points=[];" vertex="1" connectable="0" parent="FpZ4pMG53id_TzNfhulm-65">
          <mxGeometry x="-0.2377" y="-1" relative="1" as="geometry">
            <mxPoint as="offset" />
          </mxGeometry>
        </mxCell>
        <mxCell id="FpZ4pMG53id_TzNfhulm-66" style="edgeStyle=orthogonalEdgeStyle;rounded=0;orthogonalLoop=1;jettySize=auto;html=1;exitX=1;exitY=0.5;exitDx=0;exitDy=0;entryX=0;entryY=0.75;entryDx=0;entryDy=0;endArrow=none;endFill=0;" edge="1" parent="1" source="FpZ4pMG53id_TzNfhulm-61" target="FpZ4pMG53id_TzNfhulm-8">
          <mxGeometry relative="1" as="geometry">
            <Array as="points">
              <mxPoint x="560" y="545" />
              <mxPoint x="560" y="315" />
            </Array>
          </mxGeometry>
        </mxCell>
        <mxCell id="FpZ4pMG53id_TzNfhulm-67" value="0,1" style="edgeLabel;html=1;align=center;verticalAlign=middle;resizable=0;points=[];" vertex="1" connectable="0" parent="FpZ4pMG53id_TzNfhulm-66">
          <mxGeometry x="-0.8314" y="-3" relative="1" as="geometry">
            <mxPoint x="11" y="-3" as="offset" />
          </mxGeometry>
        </mxCell>
        <mxCell id="FpZ4pMG53id_TzNfhulm-61" value="locate" style="swimlane;whiteSpace=wrap;html=1;fillColor=#dae8fc;strokeColor=#6c8ebf;rounded=1;" vertex="1" parent="1">
          <mxGeometry x="380" y="525" width="100" height="40" as="geometry" />
        </mxCell>
        <mxCell id="FpZ4pMG53id_TzNfhulm-64" style="edgeStyle=orthogonalEdgeStyle;rounded=0;orthogonalLoop=1;jettySize=auto;html=1;exitX=0.5;exitY=1;exitDx=0;exitDy=0;entryX=0.5;entryY=0;entryDx=0;entryDy=0;endArrow=none;endFill=0;" edge="1" parent="1" source="FpZ4pMG53id_TzNfhulm-62" target="FpZ4pMG53id_TzNfhulm-21">
          <mxGeometry relative="1" as="geometry">
            <Array as="points">
              <mxPoint x="315" y="460" />
              <mxPoint x="210" y="460" />
            </Array>
          </mxGeometry>
        </mxCell>
        <mxCell id="FpZ4pMG53id_TzNfhulm-69" value="0,1" style="edgeLabel;html=1;align=center;verticalAlign=middle;resizable=0;points=[];" vertex="1" connectable="0" parent="FpZ4pMG53id_TzNfhulm-64">
          <mxGeometry x="-0.6242" relative="1" as="geometry">
            <mxPoint y="-11" as="offset" />
          </mxGeometry>
        </mxCell>
        <mxCell id="FpZ4pMG53id_TzNfhulm-62" value="locate" style="swimlane;whiteSpace=wrap;html=1;fillColor=#dae8fc;strokeColor=#6c8ebf;rounded=1;" vertex="1" parent="1">
          <mxGeometry x="265" y="380" width="100" height="40" as="geometry" />
        </mxCell>
        <mxCell id="FpZ4pMG53id_TzNfhulm-116" value="appuser" style="swimlane;whiteSpace=wrap;html=1;fillColor=#fff2cc;strokeColor=#d6b656;" vertex="1" parent="1">
          <mxGeometry x="1415" y="560" width="130" height="150" as="geometry" />
        </mxCell>
        <mxCell id="FpZ4pMG53id_TzNfhulm-117" value="Id_appuser" style="text;html=1;strokeColor=none;fillColor=none;align=left;verticalAlign=middle;whiteSpace=wrap;rounded=0;fontStyle=1" vertex="1" parent="FpZ4pMG53id_TzNfhulm-116">
          <mxGeometry x="10" y="20" width="60" height="30" as="geometry" />
        </mxCell>
        <mxCell id="FpZ4pMG53id_TzNfhulm-118" value="login" style="text;html=1;strokeColor=none;fillColor=none;align=left;verticalAlign=middle;whiteSpace=wrap;rounded=0;" vertex="1" parent="FpZ4pMG53id_TzNfhulm-116">
          <mxGeometry x="10" y="40" width="60" height="30" as="geometry" />
        </mxCell>
        <mxCell id="FpZ4pMG53id_TzNfhulm-119" value="password" style="text;html=1;strokeColor=none;fillColor=none;align=left;verticalAlign=middle;whiteSpace=wrap;rounded=0;" vertex="1" parent="FpZ4pMG53id_TzNfhulm-116">
          <mxGeometry x="10" y="60" width="60" height="30" as="geometry" />
        </mxCell>
        <mxCell id="FpZ4pMG53id_TzNfhulm-120" value="is_deleted" style="text;html=1;strokeColor=none;fillColor=none;align=left;verticalAlign=middle;whiteSpace=wrap;rounded=0;" vertex="1" parent="FpZ4pMG53id_TzNfhulm-116">
          <mxGeometry x="10" y="80" width="60" height="30" as="geometry" />
        </mxCell>
        <mxCell id="FpZ4pMG53id_TzNfhulm-162" value="is_deleted" style="text;html=1;strokeColor=none;fillColor=none;align=left;verticalAlign=middle;whiteSpace=wrap;rounded=0;" vertex="1" parent="FpZ4pMG53id_TzNfhulm-116">
          <mxGeometry x="10" y="100" width="60" height="30" as="geometry" />
        </mxCell>
        <mxCell id="FpZ4pMG53id_TzNfhulm-163" value="Id_account" style="text;html=1;strokeColor=none;fillColor=none;align=left;verticalAlign=middle;whiteSpace=wrap;rounded=0;fontStyle=0;fontColor=#007FFF;" vertex="1" parent="FpZ4pMG53id_TzNfhulm-116">
          <mxGeometry x="10" y="120" width="70" height="30" as="geometry" />
        </mxCell>
        <mxCell id="FpZ4pMG53id_TzNfhulm-123" value="account" style="swimlane;whiteSpace=wrap;html=1;fillColor=#fff2cc;strokeColor=#d6b656;" vertex="1" parent="1">
          <mxGeometry x="1415" y="290" width="130" height="100" as="geometry" />
        </mxCell>
        <mxCell id="FpZ4pMG53id_TzNfhulm-124" value="Id_account" style="text;html=1;align=left;verticalAlign=middle;whiteSpace=wrap;rounded=0;fontStyle=1" vertex="1" parent="FpZ4pMG53id_TzNfhulm-123">
          <mxGeometry x="10" y="20" width="70" height="30" as="geometry" />
        </mxCell>
        <mxCell id="FpZ4pMG53id_TzNfhulm-125" value="username" style="text;html=1;strokeColor=none;fillColor=none;align=left;verticalAlign=middle;whiteSpace=wrap;rounded=0;" vertex="1" parent="FpZ4pMG53id_TzNfhulm-123">
          <mxGeometry x="10" y="40" width="60" height="30" as="geometry" />
        </mxCell>
        <mxCell id="FpZ4pMG53id_TzNfhulm-126" value="is_deleted" style="text;html=1;strokeColor=none;fillColor=none;align=left;verticalAlign=middle;whiteSpace=wrap;rounded=0;" vertex="1" parent="FpZ4pMG53id_TzNfhulm-123">
          <mxGeometry x="10" y="60" width="60" height="30" as="geometry" />
        </mxCell>
        <mxCell id="FpZ4pMG53id_TzNfhulm-129" value="stable" style="swimlane;whiteSpace=wrap;html=1;fillColor=#fff2cc;strokeColor=#d6b656;" vertex="1" parent="1">
          <mxGeometry x="1085" y="305" width="110" height="125" as="geometry" />
        </mxCell>
        <mxCell id="FpZ4pMG53id_TzNfhulm-130" value="Id_stable" style="text;html=1;strokeColor=none;fillColor=none;align=left;verticalAlign=middle;whiteSpace=wrap;rounded=0;fontStyle=1" vertex="1" parent="FpZ4pMG53id_TzNfhulm-129">
          <mxGeometry x="10" y="20" width="60" height="30" as="geometry" />
        </mxCell>
        <mxCell id="FpZ4pMG53id_TzNfhulm-131" value="name" style="text;html=1;strokeColor=none;fillColor=none;align=left;verticalAlign=middle;whiteSpace=wrap;rounded=0;" vertex="1" parent="FpZ4pMG53id_TzNfhulm-129">
          <mxGeometry x="10" y="40" width="60" height="20" as="geometry" />
        </mxCell>
        <mxCell id="FpZ4pMG53id_TzNfhulm-168" value="Id_account" style="text;html=1;strokeColor=none;fillColor=none;align=left;verticalAlign=middle;whiteSpace=wrap;rounded=0;fontStyle=0;fontColor=#007FFF;" vertex="1" parent="FpZ4pMG53id_TzNfhulm-129">
          <mxGeometry x="10" y="75" width="70" height="30" as="geometry" />
        </mxCell>
        <mxCell id="FpZ4pMG53id_TzNfhulm-173" value="Id_type" style="text;html=1;strokeColor=none;fillColor=none;align=left;verticalAlign=middle;whiteSpace=wrap;rounded=0;fontStyle=0;fontColor=#007FFF;" vertex="1" parent="FpZ4pMG53id_TzNfhulm-129">
          <mxGeometry x="10" y="55" width="60" height="30" as="geometry" />
        </mxCell>
        <mxCell id="FpZ4pMG53id_TzNfhulm-132" value="type" style="swimlane;whiteSpace=wrap;html=1;fillColor=#fff2cc;strokeColor=#d6b656;" vertex="1" parent="1">
          <mxGeometry x="1085" y="80" width="110" height="80" as="geometry" />
        </mxCell>
        <mxCell id="FpZ4pMG53id_TzNfhulm-133" value="Id_type" style="text;html=1;strokeColor=none;fillColor=none;align=left;verticalAlign=middle;whiteSpace=wrap;rounded=0;fontStyle=1" vertex="1" parent="FpZ4pMG53id_TzNfhulm-132">
          <mxGeometry x="10" y="20" width="60" height="30" as="geometry" />
        </mxCell>
        <mxCell id="FpZ4pMG53id_TzNfhulm-134" value="title" style="text;html=1;strokeColor=none;fillColor=none;align=left;verticalAlign=middle;whiteSpace=wrap;rounded=0;" vertex="1" parent="FpZ4pMG53id_TzNfhulm-132">
          <mxGeometry x="10" y="40" width="60" height="30" as="geometry" />
        </mxCell>
        <mxCell id="FpZ4pMG53id_TzNfhulm-135" value="address" style="swimlane;whiteSpace=wrap;html=1;fillColor=#fff2cc;strokeColor=#d6b656;" vertex="1" parent="1">
          <mxGeometry x="980" y="530" width="110" height="180" as="geometry" />
        </mxCell>
        <mxCell id="FpZ4pMG53id_TzNfhulm-136" value="Id_address" style="text;html=1;strokeColor=none;fillColor=none;align=left;verticalAlign=middle;whiteSpace=wrap;rounded=0;fontStyle=1" vertex="1" parent="FpZ4pMG53id_TzNfhulm-135">
          <mxGeometry x="10" y="20" width="60" height="30" as="geometry" />
        </mxCell>
        <mxCell id="FpZ4pMG53id_TzNfhulm-137" value="number" style="text;html=1;strokeColor=none;fillColor=none;align=left;verticalAlign=middle;whiteSpace=wrap;rounded=0;" vertex="1" parent="FpZ4pMG53id_TzNfhulm-135">
          <mxGeometry x="10" y="40" width="60" height="30" as="geometry" />
        </mxCell>
        <mxCell id="FpZ4pMG53id_TzNfhulm-138" value="type" style="text;html=1;strokeColor=none;fillColor=none;align=left;verticalAlign=middle;whiteSpace=wrap;rounded=0;" vertex="1" parent="FpZ4pMG53id_TzNfhulm-135">
          <mxGeometry x="10" y="60" width="60" height="30" as="geometry" />
        </mxCell>
        <mxCell id="FpZ4pMG53id_TzNfhulm-139" value="code postal" style="text;html=1;strokeColor=none;fillColor=none;align=left;verticalAlign=middle;whiteSpace=wrap;rounded=0;" vertex="1" parent="FpZ4pMG53id_TzNfhulm-135">
          <mxGeometry x="10" y="80" width="70" height="30" as="geometry" />
        </mxCell>
        <mxCell id="FpZ4pMG53id_TzNfhulm-140" value="city" style="text;html=1;strokeColor=none;fillColor=none;align=left;verticalAlign=middle;whiteSpace=wrap;rounded=0;" vertex="1" parent="FpZ4pMG53id_TzNfhulm-135">
          <mxGeometry x="10" y="100" width="70" height="30" as="geometry" />
        </mxCell>
        <mxCell id="FpZ4pMG53id_TzNfhulm-165" value="Id_account" style="text;html=1;strokeColor=none;fillColor=none;align=left;verticalAlign=middle;whiteSpace=wrap;rounded=0;fontStyle=0;fontColor=#007FFF;" vertex="1" parent="FpZ4pMG53id_TzNfhulm-135">
          <mxGeometry x="10" y="120" width="70" height="30" as="geometry" />
        </mxCell>
        <mxCell id="FpZ4pMG53id_TzNfhulm-171" value="Id_stable" style="text;html=1;strokeColor=none;fillColor=none;align=left;verticalAlign=middle;whiteSpace=wrap;rounded=0;fontStyle=0;fontColor=#007FFF;" vertex="1" parent="FpZ4pMG53id_TzNfhulm-135">
          <mxGeometry x="10" y="140" width="60" height="30" as="geometry" />
        </mxCell>
        <mxCell id="FpZ4pMG53id_TzNfhulm-164" style="edgeStyle=orthogonalEdgeStyle;rounded=0;orthogonalLoop=1;jettySize=auto;html=1;exitX=1;exitY=0.5;exitDx=0;exitDy=0;entryX=1;entryY=0.5;entryDx=0;entryDy=0;fontColor=#007FFF;endArrow=none;endFill=0;" edge="1" parent="1" source="FpZ4pMG53id_TzNfhulm-163" target="FpZ4pMG53id_TzNfhulm-124">
          <mxGeometry relative="1" as="geometry" />
        </mxCell>
        <mxCell id="FpZ4pMG53id_TzNfhulm-169" style="edgeStyle=orthogonalEdgeStyle;rounded=0;orthogonalLoop=1;jettySize=auto;html=1;exitX=1;exitY=0.5;exitDx=0;exitDy=0;entryX=0;entryY=0.25;entryDx=0;entryDy=0;fontColor=#007FFF;endArrow=none;endFill=0;" edge="1" parent="1" source="FpZ4pMG53id_TzNfhulm-168" target="FpZ4pMG53id_TzNfhulm-124">
          <mxGeometry relative="1" as="geometry" />
        </mxCell>
        <mxCell id="FpZ4pMG53id_TzNfhulm-170" style="edgeStyle=orthogonalEdgeStyle;rounded=0;orthogonalLoop=1;jettySize=auto;html=1;exitX=1;exitY=0.5;exitDx=0;exitDy=0;entryX=0;entryY=0.75;entryDx=0;entryDy=0;fontColor=#007FFF;endArrow=none;endFill=0;" edge="1" parent="1" source="FpZ4pMG53id_TzNfhulm-165" target="FpZ4pMG53id_TzNfhulm-124">
          <mxGeometry relative="1" as="geometry">
            <Array as="points">
              <mxPoint x="1400" y="665" />
              <mxPoint x="1400" y="333" />
            </Array>
          </mxGeometry>
        </mxCell>
        <mxCell id="FpZ4pMG53id_TzNfhulm-172" style="edgeStyle=orthogonalEdgeStyle;rounded=0;orthogonalLoop=1;jettySize=auto;html=1;exitX=0;exitY=0.5;exitDx=0;exitDy=0;entryX=0;entryY=0.5;entryDx=0;entryDy=0;fontColor=#007FFF;endArrow=none;endFill=0;" edge="1" parent="1" source="FpZ4pMG53id_TzNfhulm-171" target="FpZ4pMG53id_TzNfhulm-168">
          <mxGeometry relative="1" as="geometry" />
        </mxCell>
        <mxCell id="FpZ4pMG53id_TzNfhulm-174" style="edgeStyle=orthogonalEdgeStyle;rounded=0;orthogonalLoop=1;jettySize=auto;html=1;exitX=1;exitY=0.5;exitDx=0;exitDy=0;entryX=1;entryY=0.5;entryDx=0;entryDy=0;fontColor=#007FFF;endArrow=none;endFill=0;" edge="1" parent="1" source="FpZ4pMG53id_TzNfhulm-173" target="FpZ4pMG53id_TzNfhulm-133">
          <mxGeometry relative="1" as="geometry" />
        </mxCell>
      </root>
    </mxGraphModel>
  </diagram>
</mxfile>
